<?xml version="1.0" standalone="no"?>
<!DOCTYPE svg PUBLIC "-//W3C//DTD SVG 1.1//EN" "http://www.w3.org/Graphics/SVG/1.1/DTD/svg11.dtd" >
<svg xmlns="http://www.w3.org/2000/svg">
<metadata></metadata>
<defs>
<font id="fira_sans_otregular" horiz-adv-x="500" >
<font-face units-per-em="1000" ascent="800" descent="-200" />
<missing-glyph horiz-adv-x="265" />
<glyph horiz-adv-x="0" />
<glyph horiz-adv-x="0" />
<glyph horiz-adv-x="333" />
<glyph unicode="&#xd;" horiz-adv-x="265" />
<glyph unicode=" "  horiz-adv-x="265" />
<glyph unicode="&#x09;" horiz-adv-x="265" />
<glyph unicode="&#xa0;" horiz-adv-x="265" />
<glyph unicode="!" horiz-adv-x="265" d="M63 58q0 29 20 49t49 20q30 0 50 -20t20 -49t-20 -49.5t-50 -20.5q-29 0 -49 20.5t-20 49.5zM80 689h102l-10 -459h-81z" />
<glyph unicode="&#x22;" horiz-adv-x="455" d="M88 689h99v-262h-68zM268 689h99v-262h-68z" />
<glyph unicode="#" d="M3 167v69h86l27 199h-80v70h89l21 164h78l-22 -164h141l21 164h78l-22 -164h77v-70h-86l-26 -199h79v-69h-89l-21 -167h-78l22 167h-140l-22 -167h-78l22 167h-77zM167 236h140l27 199h-141z" />
<glyph unicode="$" horiz-adv-x="503" d="M14 76l53 58q73 -70 173 -70q64 0 104.5 30.5t40.5 88.5q0 49 -29.5 75.5t-114.5 52.5q-101 32 -151 78.5t-50 115.5q0 68 46 113t123 55v152h78v-150q101 -8 173 -76l-53 -56q-64 60 -152 60q-53 0 -86.5 -24t-33.5 -71q0 -43 30 -67.5t119 -52.5q46 -14 77 -28.5 t60.5 -37t44.5 -57t15 -79.5q0 -81 -50.5 -132t-143.5 -60v-148h-79v147q-120 11 -194 83z" />
<glyph unicode="%" horiz-adv-x="850" d="M75 510q0 77 45.5 123t116.5 46q72 0 117.5 -46t45.5 -123t-45.5 -123t-117.5 -46q-71 0 -116.5 46t-45.5 123zM156 510q0 -107 81 -107t81 107t-81 107t-81 -107zM162 11l462 697l65 -39l-463 -697zM450 157q0 77 45.5 123t117.5 46t117 -46t45 -123t-45 -123t-117 -46 t-117.5 46t-45.5 123zM532 157q0 -107 81 -107t81 107q0 106 -81 106t-81 -106z" />
<glyph unicode="&#x26;" horiz-adv-x="777" d="M92 175q0 63 32 110t98 89q-55 50 -80 86t-25 82q0 71 48 115t136 44q83 0 135 -42.5t52 -108.5q0 -59 -37 -101.5t-103 -81.5l177 -172q42 70 67 174l86 -25q-36 -118 -92 -202l159 -142h-121l-90 79q-91 -91 -214 -91q-108 0 -168 50t-60 137zM186 181q0 -56 35 -88 t99 -32q91 0 158 69l-201 195q-50 -32 -70.5 -65t-20.5 -79zM207 541q0 -32 20.5 -59.5t65.5 -66.5q51 31 77.5 61t26.5 66q0 42 -25.5 66.5t-69.5 24.5q-46 0 -70.5 -25t-24.5 -67z" />
<glyph unicode="'" horiz-adv-x="275" d="M88 689h99v-262h-68z" />
<glyph unicode="(" horiz-adv-x="325" d="M40 350q0 85 13.5 154.5t45 132.5t56.5 100.5t74 104.5l58 -40q-79 -111 -115 -207t-36 -245t36 -245.5t115 -206.5l-58 -40q-49 67 -74 104.5t-56.5 100.5t-45 132.5t-13.5 154.5z" />
<glyph unicode=")" horiz-adv-x="325" d="M38 -102q79 110 115 206.5t36 245.5t-36 245t-115 207l58 40q49 -67 74 -104.5t56.5 -100.5t45 -132.5t13.5 -154.5t-13.5 -154.5t-45 -132.5t-56.5 -100.5t-74 -104.5z" />
<glyph unicode="*" horiz-adv-x="440" d="M24 560l27 85l139 -60l-15 153h90l-16 -153l140 60l27 -85l-147 -32l105 -109l-73 -55l-80 130l-75 -132l-75 51l101 115z" />
<glyph unicode="+" d="M62 273v76h145v150h84v-150h146v-76h-146v-149h-84v149h-145z" />
<glyph unicode="," horiz-adv-x="265" d="M51 -166l40 166q-28 21 -28 58q0 29 20 49t49 20q30 0 50 -20t20 -49q0 -31 -18 -71l-67 -153h-66z" />
<glyph unicode="-" horiz-adv-x="405" d="M61 274v78h283v-78h-283z" />
<glyph unicode="." horiz-adv-x="265" d="M63 58q0 29 20 49t49 20q30 0 50 -20t20 -49t-20 -49.5t-50 -20.5q-29 0 -49 20.5t-20 49.5z" />
<glyph unicode="/" horiz-adv-x="520" d="M105 -85l232 895l78 -18l-231 -896z" />
<glyph unicode="0" horiz-adv-x="560" d="M56 334q0 168 56.5 256.5t167.5 88.5t167.5 -88.5t56.5 -256.5t-56.5 -257t-167.5 -89t-167.5 89t-56.5 257zM152 334q0 -144 31.5 -208.5t96.5 -64.5q64 0 96 64.5t32 208.5q0 143 -32 207.5t-96 64.5q-65 0 -96.5 -64t-31.5 -208z" />
<glyph unicode="1" horiz-adv-x="400" d="M18 539l203 130h81v-669h-92v568l-149 -93z" />
<glyph unicode="2" horiz-adv-x="507" d="M27 578q81 101 203 101q91 0 146 -52.5t55 -136.5q0 -86 -62 -173t-223 -240h301l-11 -77h-395v73q181 181 237.5 259.5t56.5 154.5q0 55 -30 85.5t-80 30.5q-41 0 -72 -17t-64 -56z" />
<glyph unicode="3" horiz-adv-x="502" d="M14 80l61 50q56 -67 139 -67q63 0 99 35.5t36 95.5q0 66 -34 93t-99 27h-43l11 71h27q52 0 86.5 31t34.5 87q0 47 -30 74.5t-81 27.5q-74 0 -138 -60l-48 55q85 79 191 79q92 0 145 -49.5t53 -120.5q0 -60 -35.5 -100.5t-89.5 -51.5l1 -4q61 -6 103 -47.5t42 -112.5 q0 -89 -62.5 -147t-165.5 -58q-126 0 -203 92z" />
<glyph unicode="4" horiz-adv-x="524" d="M37 165v66l193 448l77 -32l-173 -409h181l9 180h80v-180h87v-73h-87v-165h-89v165h-278z" />
<glyph unicode="5" horiz-adv-x="515" d="M33 78l63 51q56 -66 136 -66q63 0 100 42t37 111q0 139 -122 139q-41 0 -90 -23h-72v337h360l-11 -72h-261v-193q45 22 102 22q86 0 137.5 -56.5t51.5 -155.5t-64 -162.5t-167 -63.5q-124 0 -200 90z" />
<glyph unicode="6" horiz-adv-x="535" d="M56 318q0 163 67.5 262t182.5 99q79 0 135 -40l-39 -62q-40 29 -97 29q-70 0 -111.5 -69t-44.5 -185q61 88 155 88q79 0 131.5 -55t52.5 -158q0 -107 -60.5 -173t-149.5 -66q-222 0 -222 330zM149 274q3 -109 34 -161t95 -52q56 0 86.5 44t30.5 119q0 143 -108 143 q-82 0 -138 -93z" />
<glyph unicode="7" horiz-adv-x="443" d="M25 594v75h389v-69l-250 -610l-85 26l242 578h-296z" />
<glyph unicode="8" horiz-adv-x="556" d="M47 177q0 116 132 174q-104 52 -104 156q0 58 33 98.5t77 57t93 16.5q83 0 143 -43t60 -127q0 -91 -114 -150q141 -60 141 -180q0 -83 -65 -137t-167 -54q-103 0 -166 53t-63 136zM143 177q0 -55 35.5 -85.5t97.5 -30.5t99 33.5t37 83.5q0 26 -9 46.5t-19.5 33t-38 26.5 t-45.5 21t-60 22q-97 -47 -97 -150zM165 506q0 -50 32.5 -76t107.5 -49q46 26 66 55t20 70q0 47 -30.5 75.5t-82.5 28.5t-82.5 -27t-30.5 -77z" />
<glyph unicode="9" horiz-adv-x="534" d="M47 458q0 102 61.5 161.5t152.5 59.5q100 0 158 -71t58 -189q0 -194 -82 -290t-274 -151l-21 69q127 36 201 103.5t82 165.5l-2 1q-54 -74 -151 -74q-79 0 -131 58.5t-52 156.5zM140 456q0 -69 30.5 -105t80.5 -36q81 0 133 82q0 209 -124 209q-55 0 -87.5 -39.5 t-32.5 -110.5z" />
<glyph unicode=":" horiz-adv-x="265" d="M63 58q0 29 20 49t49 20q30 0 50 -20t20 -49t-20 -49.5t-50 -20.5q-29 0 -49 20.5t-20 49.5zM63 431q0 29 20 49t49 20q30 0 50 -20t20 -49t-20 -49.5t-50 -20.5q-29 0 -49 20.5t-20 49.5z" />
<glyph unicode=";" horiz-adv-x="265" d="M51 -166l40 166q-28 21 -28 58q0 29 20 49t49 20q30 0 50 -20t20 -49q0 -31 -18 -71l-67 -153h-66zM63 431q0 29 20 49t49 20q30 0 50 -20t20 -49t-20 -49.5t-50 -20.5q-29 0 -49 20.5t-20 49.5z" />
<glyph unicode="&#x3c;" d="M62 286v94l357 171l36 -73l-320 -145l320 -142l-36 -76z" />
<glyph unicode="=" d="M62 176v78h376v-78h-376zM62 368v78h376v-78h-376z" />
<glyph unicode="&#x3e;" d="M45 189l320 144l-320 142l36 76l357 -171v-94l-357 -171z" />
<glyph unicode="?" horiz-adv-x="507" d="M42 601q85 100 209 100q90 0 140.5 -46t50.5 -110q0 -44 -18.5 -76t-45 -52t-53.5 -38.5t-45.5 -47.5t-18.5 -68v-33h-91v38q0 45 18 79.5t44 55.5t52 39.5t44 42.5t18 54q0 41 -27.5 63.5t-76.5 22.5q-77 0 -136 -72zM149 58q0 29 20 49t49 20q30 0 50 -20t20 -49 t-20 -49.5t-50 -20.5q-29 0 -49 20.5t-20 49.5z" />
<glyph unicode="@" horiz-adv-x="1020" d="M70 240q0 201 125.5 331t338.5 130q132 0 228 -55.5t142 -143.5t46 -195q0 -130 -50 -214t-147 -84q-56 0 -87.5 30.5t-39.5 69.5h-4q-16 -41 -51 -68t-90 -27q-82 0 -127.5 58.5t-45.5 158.5q0 126 60 193.5t158 67.5q82 0 157 -40v-284q0 -88 68 -88q106 0 106 225 q0 147 -85 233.5t-238 86.5q-177 0 -274 -106.5t-97 -278.5q0 -170 96 -273.5t267 -103.5q95 0 192 34l25 -71q-112 -39 -218 -39q-203 0 -329 123.5t-126 329.5zM398 231q0 -150 94 -150q75 0 108 86v242q-34 17 -71 17q-131 0 -131 -195z" />
<glyph unicode="A" horiz-adv-x="579" d="M6 0l224 689h120l223 -689h-100l-53 173h-265l-53 -173h-96zM178 250h219l-107 353h-4z" />
<glyph unicode="B" horiz-adv-x="626" d="M105 0v689h187q49 0 90.5 -8.5t78 -27.5t57 -54t20.5 -84q0 -61 -35.5 -98.5t-84.5 -48.5v-4q63 -12 106.5 -51t43.5 -116q0 -54 -22 -94t-60.5 -61.5t-82.5 -31.5t-96 -10h-202zM200 76h120q148 0 148 119q0 129 -144 129h-124v-248zM200 397h117q124 0 124 112 q0 105 -132 105h-109v-217z" />
<glyph unicode="C" horiz-adv-x="571" d="M62 345q0 167 82 261.5t204 94.5q63 0 107 -16.5t87 -51.5l-52 -61q-61 51 -136 51q-85 0 -138 -66.5t-53 -211.5q0 -142 52 -209.5t138 -67.5q83 0 150 59l49 -62q-81 -77 -203 -77q-128 0 -207.5 93.5t-79.5 263.5z" />
<glyph unicode="D" horiz-adv-x="656" d="M105 0v689h154q54 0 99 -7.5t90.5 -30t76 -59.5t50 -99t19.5 -145q0 -82 -20 -145t-51 -101t-75 -61.5t-86.5 -32t-91.5 -8.5h-165zM200 75h81q42 0 76.5 12t66.5 40.5t50.5 84.5t18.5 136q0 67 -13.5 117t-33.5 77.5t-49.5 44t-56.5 21.5t-60 5h-80v-538z" />
<glyph unicode="E" horiz-adv-x="540" d="M105 0v689h373l-11 -76h-267v-225h232v-76h-232v-236h286v-76h-381z" />
<glyph unicode="F" horiz-adv-x="496" d="M105 0v689h366l-11 -76h-260v-235h225v-75h-225v-303h-95z" />
<glyph unicode="G" horiz-adv-x="638" d="M62 345q0 168 88.5 262t211.5 94q68 0 115 -18.5t91 -58.5l-56 -58q-61 57 -149 57q-85 0 -142.5 -66.5t-57.5 -211.5t47.5 -212t140.5 -67q77 0 131 32v204h-130l-11 77h235v-330q-104 -61 -232 -61q-131 0 -206.5 91t-75.5 266z" />
<glyph unicode="H" horiz-adv-x="680" d="M105 0v689h95v-288h280v288h95v-689h-95v323h-280v-323h-95z" />
<glyph unicode="I" horiz-adv-x="306" d="M105 0v689h96v-689h-96z" />
<glyph unicode="J" horiz-adv-x="308" d="M5 -65q65 26 86.5 60t21.5 105v589h95v-593q0 -100 -44.5 -152.5t-134.5 -82.5z" />
<glyph unicode="K" horiz-adv-x="594" d="M105 0v689h95v-689h-95zM205 368l262 321h108l-261 -315l280 -374h-117z" />
<glyph unicode="L" horiz-adv-x="503" d="M105 0v689h95v-606h283l-11 -83h-367z" />
<glyph unicode="M" horiz-adv-x="796" d="M62 0l57 689h128l151 -503h4l146 503h129l57 -689h-92l-30 353q-11 133 -11 229h-4l-154 -509h-91l-160 509h-4q0 -115 -9 -229l-27 -353h-90z" />
<glyph unicode="N" horiz-adv-x="689" d="M105 0v689h126l273 -586h4q-13 104 -13 250v336h89v-689h-129l-270 583h-4q13 -104 13 -247v-336h-89z" />
<glyph unicode="O" horiz-adv-x="696" d="M62 343q0 169 78.5 263.5t207.5 94.5q130 0 208 -93t78 -264q0 -169 -78 -262.5t-208 -93.5t-208 92t-78 263zM163 343q0 -277 185 -277t185 278q0 279 -185 279t-185 -280z" />
<glyph unicode="P" horiz-adv-x="586" d="M105 0v689h180q128 0 198.5 -53.5t70.5 -159.5q0 -115 -71.5 -169t-195.5 -54h-87v-253h-95zM200 328h95q76 0 117 32t41 115q0 140 -158 140h-95v-287z" />
<glyph unicode="Q" horiz-adv-x="696" d="M62 343q0 169 78.5 263.5t207.5 94.5q130 0 208 -93t78 -264q0 -226 -141 -301l1 -4q105 0 194 -62l-62 -80q-58 52 -119 72.5t-156 20.5q-133 0 -211 91t-78 262zM163 343q0 -277 185 -277t185 278q0 279 -185 279t-185 -280z" />
<glyph unicode="R" horiz-adv-x="607" d="M105 0v689h181q262 0 262 -195q0 -74 -45.5 -122.5t-119.5 -67.5l202 -304h-113l-184 292h-88v-292h-95zM200 365h96q151 0 151 129q0 64 -37 92.5t-115 28.5h-95v-250z" />
<glyph unicode="S" horiz-adv-x="545" d="M27 77l55 61q75 -72 178 -72q64 0 106 31.5t42 91.5q0 49 -31.5 77.5t-117.5 55.5q-106 32 -155 77t-49 122q0 80 60 130t157 50q127 0 213 -80l-54 -60q-68 62 -155 62q-54 0 -89 -25t-35 -73q0 -45 30 -70.5t121 -53.5q48 -15 79.5 -29t62.5 -38t46.5 -59t15.5 -83 q0 -91 -65.5 -147.5t-178.5 -56.5q-145 0 -236 89z" />
<glyph unicode="T" horiz-adv-x="517" d="M16 608v81h493l-10 -81h-190v-608h-95v608h-198z" />
<glyph unicode="U" horiz-adv-x="672" d="M95 224v465h95v-461q0 -160 145 -160q146 0 146 160v461h96v-465q0 -107 -64 -171.5t-178 -64.5q-115 0 -177.5 64t-62.5 172z" />
<glyph unicode="V" horiz-adv-x="585" d="M15 689h102l176 -580h4l177 580h96l-226 -689h-102z" />
<glyph unicode="W" horiz-adv-x="830" d="M25 689h93l109 -597h4l133 597h101l136 -594h4l113 594h87l-140 -689h-124l-126 558h-4l-127 -558h-119z" />
<glyph unicode="X" horiz-adv-x="555" d="M5 0l212 367l-194 322h108l142 -256h4l148 256h102l-197 -317l220 -372h-108l-167 302h-4l-164 -302h-102z" />
<glyph unicode="Y" horiz-adv-x="550" d="M5 689h105l166 -337h4l166 337h99l-222 -424v-265h-96v264z" />
<glyph unicode="Z" horiz-adv-x="521" d="M31 0v76l344 533h-308v80h411v-77l-341 -531h341l-11 -81h-436z" />
<glyph unicode="[" horiz-adv-x="325" d="M67 -116v932h207v-77h-120v-779h120v-76h-207z" />
<glyph unicode="\" horiz-adv-x="520" d="M105 792l78 18l232 -895l-79 -19z" />
<glyph unicode="]" horiz-adv-x="325" d="M51 -40h120v779h-120v77h207v-932h-207v76z" />
<glyph unicode="^" horiz-adv-x="520" d="M30 527l189 313h82l189 -313h-98l-133 233l-132 -233h-97z" />
<glyph unicode="_" horiz-adv-x="520" d="M17 -63h486v-79h-486v79z" />
<glyph unicode="`" horiz-adv-x="297" d="M30 722l47 78l190 -113l-28 -49z" />
<glyph unicode="a" horiz-adv-x="546" d="M45 151q0 82 64 126t184 44h68v41q0 55 -27.5 78.5t-86.5 23.5q-61 0 -138 -27l-24 68q92 34 176 34q192 0 192 -172v-248q0 -30 9 -44.5t30 -22.5l-22 -64q-75 10 -97 74q-55 -74 -157 -74q-79 0 -125 44.5t-46 118.5zM146 155q0 -98 95 -98q72 0 120 73v130h-63 q-152 0 -152 -105z" />
<glyph unicode="b" horiz-adv-x="592" d="M98 0v739l92 11v-290q60 79 149 79q196 0 196 -275q0 -124 -54.5 -200t-153.5 -76q-91 0 -142 66l-6 -54h-81zM190 127q43 -66 115 -66q131 0 131 203q0 202 -119 202q-72 0 -127 -82v-257z" />
<glyph unicode="c" horiz-adv-x="476" d="M57 261q0 124 61.5 201t174.5 77q91 0 159 -57l-45 -60q-55 41 -114 41q-65 0 -101 -50.5t-36 -151.5q0 -195 137 -195q57 0 115 43l44 -63q-71 -58 -160 -58q-115 0 -175 73t-60 200z" />
<glyph unicode="d" horiz-adv-x="596" d="M57 263q0 122 56 199t152 77q88 0 141 -61v272l92 -11v-739h-81l-8 68q-56 -80 -151 -80q-99 0 -150 73.5t-51 201.5zM156 263q0 -202 123 -202q74 0 127 81v259q-44 65 -117 65q-64 0 -98.5 -51t-34.5 -152z" />
<glyph unicode="e" horiz-adv-x="546" d="M57 263q0 122 60 199t163 77q102 0 157.5 -69t55.5 -191q0 -23 -2 -47h-336q12 -169 142 -169q72 0 132 49l42 -61q-79 -63 -176 -63q-115 0 -176.5 74.5t-61.5 200.5zM155 300h247q-3 166 -122 166q-115 0 -125 -166z" />
<glyph unicode="f" horiz-adv-x="336" d="M21 456v71h84v72q0 68 43.5 109.5t121.5 41.5q63 0 126 -27l-29 -67q-45 20 -92 20q-42 0 -60 -18.5t-18 -57.5v-73h128l-10 -71h-118v-456h-92v456h-84z" />
<glyph unicode="g" horiz-adv-x="526" d="M31 -53h83q0 -49 36.5 -68.5t106.5 -19.5q151 0 151 81q0 37 -24 56.5t-88 19.5h-70q-64 0 -102 28t-38 75q0 51 52 89q-83 49 -83 146q0 80 56 132.5t150 52.5q133 0 238 47l27 -83q-50 -16 -148 -16v-4q84 -39 84 -130q0 -78 -53.5 -128t-145.5 -50q-35 0 -70 9 q-22 -20 -22 -48q0 -43 57 -43h73q96 0 148 -38t52 -110q0 -79 -68 -118.5t-176 -39.5q-226 0 -226 156v4zM149 354q0 -53 29.5 -85.5t82.5 -32.5t81.5 32t28.5 87q0 118 -110 118q-53 0 -82.5 -33t-29.5 -86z" />
<glyph unicode="h" horiz-adv-x="589" d="M98 0v738l92 10v-288q66 79 162 79q143 0 143 -156v-383h-92v377q0 48 -18.5 69t-63.5 21q-73 0 -131 -85v-382h-92z" />
<glyph unicode="i" horiz-adv-x="279" d="M75 710q0 27 18 44.5t46 17.5t46.5 -18t18.5 -44q0 -27 -18.5 -45t-46.5 -18t-46 18t-18 45zM93 0v527h92v-527h-92z" />
<glyph unicode="j" horiz-adv-x="279" d="M-9 -145q39 18 58.5 34t31.5 49t12 88v501h92v-495q0 -74 -19.5 -121t-51 -72t-89.5 -51zM75 710q0 27 18 44.5t46 17.5t46.5 -18t18.5 -44q0 -27 -18.5 -45t-46.5 -18t-46 18t-18 45z" />
<glyph unicode="k" horiz-adv-x="515" d="M98 0v739l92 11v-750h-92zM196 288l197 239h103l-197 -233l216 -294h-110z" />
<glyph unicode="l" horiz-adv-x="290" d="M88 114v625l92 11v-644q0 -42 33 -42q19 0 34 6l24 -64q-38 -18 -75 -18q-50 0 -79 30.5t-29 95.5z" />
<glyph unicode="m" horiz-adv-x="864" d="M98 0v527h79l7 -72q65 84 156 84q104 0 130 -84q69 84 160 84q140 0 140 -156v-383h-92v371q0 52 -16.5 74t-56.5 22q-35 0 -68.5 -24.5t-56.5 -60.5v-382h-92v378q0 47 -17 68t-56 21q-35 0 -68.5 -24.5t-56.5 -60.5v-382h-92z" />
<glyph unicode="n" horiz-adv-x="589" d="M98 0v527h79l7 -72q67 84 168 84q143 0 143 -156v-383h-92v377q0 48 -18.5 69t-63.5 21q-73 0 -131 -85v-382h-92z" />
<glyph unicode="o" horiz-adv-x="584" d="M57 263q0 125 62.5 200.5t173.5 75.5t172.5 -74t61.5 -201q0 -124 -62.5 -200t-172.5 -76q-111 0 -173 74t-62 201zM156 263q0 -201 136 -201t136 202q0 201 -135 201q-137 0 -137 -202z" />
<glyph unicode="p" horiz-adv-x="592" d="M98 -213v740h79l7 -72q61 84 156 84q195 0 195 -275q0 -124 -54 -200t-153 -76q-88 0 -138 60v-250zM190 127q42 -64 116 -64q130 0 130 201q0 202 -119 202q-72 0 -127 -82v-257z" />
<glyph unicode="q" horiz-adv-x="596" d="M57 263q0 122 56.5 199t152.5 77q92 0 146 -68l7 56h79v-740l-92 11v266q-56 -76 -148 -76q-102 0 -151.5 72.5t-49.5 202.5zM156 263q0 -200 123 -200q76 0 127 79v259q-43 65 -117 65q-64 0 -98.5 -51t-34.5 -152z" />
<glyph unicode="r" horiz-adv-x="384" d="M98 0v527h80l11 -101q46 113 138 113q28 0 52 -6l-17 -90q-24 6 -46 6q-46 0 -78.5 -40t-47.5 -100v-309h-92z" />
<glyph unicode="s" horiz-adv-x="474" d="M26 57l51 58q64 -53 146 -53q50 0 80.5 21.5t30.5 58.5q0 39 -25.5 59t-103.5 39q-76 19 -116 54.5t-40 96.5q0 66 56 107t141 41q96 0 170 -53l-41 -62q-61 42 -133 42q-43 0 -70.5 -19t-27.5 -50q0 -33 26 -50t96 -36q82 -23 124.5 -57.5t42.5 -104.5q0 -79 -60.5 -120 t-147.5 -41q-120 0 -199 69z" />
<glyph unicode="t" horiz-adv-x="367" d="M21 457v70h84v119l92 11v-130h133l-11 -70h-122v-315q0 -41 14.5 -59.5t48.5 -18.5q33 0 70 23l35 -63q-48 -36 -118 -36q-71 0 -106.5 41t-35.5 112v316h-84z" />
<glyph unicode="u" horiz-adv-x="582" d="M93 144v383h92v-372q0 -51 17.5 -73t60.5 -22q77 0 129 81v386h92v-527h-79l-7 70q-63 -82 -160 -82q-145 0 -145 156z" />
<glyph unicode="v" horiz-adv-x="494" d="M11 527h98l138 -442h4l137 442h95l-183 -527h-107z" />
<glyph unicode="w" horiz-adv-x="729" d="M21 527h92l93 -454h4l107 454h103l102 -452h4l94 452h88l-120 -527h-125l-96 434h-4l-97 -434h-122z" />
<glyph unicode="x" horiz-adv-x="479" d="M2 0l183 278l-162 249h108l108 -189h4l109 189h104l-161 -245l182 -282h-111l-127 219h-4l-129 -219h-104z" />
<glyph unicode="y" horiz-adv-x="491" d="M11 527h98l136 -453h4l136 453h95l-176 -530q-31 -92 -86.5 -146t-155.5 -64l-13 72q77 13 112 45t55 96h-31z" />
<glyph unicode="z" horiz-adv-x="440" d="M26 0v69l274 380h-251v78h356v-70l-275 -380h278l-11 -77h-371z" />
<glyph unicode="{" horiz-adv-x="325" d="M26 313v74q42 0 56 16.5t14 57.5v226q0 83 46 116t141 33v-71q-54 0 -77 -15.5t-23 -52.5v-239q0 -50 -19 -73.5t-56 -32.5v-4q37 -9 56 -32.5t19 -73.5v-239q0 -38 22.5 -53t77.5 -15v-71q-95 0 -141 33t-46 116v225q0 41 -14 58t-56 17z" />
<glyph unicode="|" horiz-adv-x="403" d="M160 -102v909h83v-909h-83z" />
<glyph unicode="}" horiz-adv-x="325" d="M42 -65q55 0 77.5 15t22.5 53v239q0 50 19 73.5t56 32.5v4q-37 9 -56 32.5t-19 73.5v239q0 37 -23 52.5t-77 15.5v71q95 0 141 -33t46 -116v-226q0 -41 14 -57.5t56 -16.5v-74q-42 0 -56 -17t-14 -58v-225q0 -83 -46 -116t-141 -33v71z" />
<glyph unicode="~" d="M41 287q47 92 134 92q34 0 64 -14t53 -28t39 -14q38 0 67 50l61 -32q-47 -91 -134 -91q-34 0 -64 14t-53 28.5t-39 14.5q-38 0 -67 -51z" />
<glyph unicode="&#xa1;" horiz-adv-x="265" d="M63 430q0 29 20 49.5t49 20.5t49.5 -20.5t20.5 -49.5t-20.5 -49t-49.5 -20t-49 20t-20 49zM80 -198l13 456h78l14 -456h-105z" />
<glyph unicode="&#xa2;" horiz-adv-x="477" d="M53 261q0 111 50 184.5t143 87.5v151h79v-150q66 -8 122 -52l-45 -60q-55 41 -115 41q-64 0 -99.5 -50.5t-35.5 -151.5q0 -195 136 -195q58 0 115 44l44 -64q-53 -43 -122 -53v-147h-80v148q-94 13 -143 83t-49 184z" />
<glyph unicode="&#xa3;" d="M29 0v73q28 9 45.5 21.5t25 31.5t9.5 35t2 44v112h-81v60h81v116q0 83 50 134.5t139 51.5q112 0 176 -88l-61 -46q-46 59 -111 59q-49 0 -75.5 -28.5t-26.5 -81.5v-117h203v-60h-203v-108q0 -97 -55 -128v-4h314l-11 -77h-421z" />
<glyph unicode="&#xa4;" horiz-adv-x="560" d="M14 129l88 88q-35 54 -35 125q0 70 34 123l-87 89l56 56l88 -89q53 33 123 33q71 0 121 -33l88 88l56 -56l-86 -87q36 -54 36 -124q0 -69 -37 -126l87 -86l-56 -56l-89 87q-50 -32 -120 -32q-71 0 -123 32l-88 -88zM156 342q0 -67 32 -103.5t93 -36.5t92.5 36.5 t31.5 103.5q0 66 -31.5 103t-92.5 37t-93 -37t-32 -103z" />
<glyph unicode="&#xa5;" d="M-5 669h102l154 -291h4l153 291h97l-184 -323h117v-61h-141v-89h141v-60h-141v-136h-94v136h-141v60h141v89h-141v61h116z" />
<glyph unicode="&#xa6;" horiz-adv-x="403" d="M160 -102v356h83v-356h-83zM160 451v356h83v-356h-83z" />
<glyph unicode="&#xa7;" d="M53 311q0 75 76 124q-52 41 -52 98q0 66 53.5 105t133.5 39q95 0 173 -54l-43 -58q-59 41 -131 41q-43 0 -69 -18t-26 -48q0 -34 24 -54t98 -45q84 -28 120 -61t36 -90q0 -66 -75 -116q53 -40 53 -99q0 -67 -54 -106.5t-141 -39.5q-101 0 -174 55l42 60q61 -43 135 -43 q44 0 72 17t28 48q0 35 -23 53.5t-99 43.5q-85 28 -121 59.5t-36 88.5zM142 323q0 -39 23.5 -55.5t107.5 -45.5q9 -3 14.5 -5t14.5 -5t17 -6q39 37 39 74q0 40 -30 58.5t-148 61.5q-38 -38 -38 -77z" />
<glyph unicode="&#xa8;" horiz-adv-x="385" d="M30 711q0 24 16.5 40.5t41.5 16.5q24 0 40.5 -16.5t16.5 -40.5t-16.5 -40.5t-40.5 -16.5q-25 0 -41.5 16.5t-16.5 40.5zM240 711q0 24 16.5 40.5t40.5 16.5q25 0 41.5 -16.5t16.5 -40.5t-16.5 -40.5t-41.5 -16.5q-24 0 -40.5 16.5t-16.5 40.5z" />
<glyph unicode="&#xa9;" horiz-adv-x="800" d="M87 434q0 130 91.5 222t222.5 92q130 0 221 -91.5t91 -222.5q0 -130 -91 -221.5t-221 -91.5t-222 91.5t-92 221.5zM148 434q0 -109 72.5 -184.5t180.5 -75.5q107 0 179.5 75.5t72.5 184.5q0 110 -72.5 186t-179.5 76q-108 0 -180.5 -76t-72.5 -186zM237 435 q0 89 47 139.5t116 50.5q65 0 117 -40l-37 -49q-36 29 -76 29q-41 0 -66 -32t-25 -98q0 -63 24.5 -95t66.5 -32q47 0 84 34l34 -50q-53 -47 -121 -47q-74 0 -119 50t-45 140z" />
<glyph unicode="&#xaa;" horiz-adv-x="600" d="M103 440q0 67 55 102.5t157 35.5h53v28q0 41 -22.5 58.5t-69.5 17.5q-48 0 -116 -24l-24 62q80 30 152 30q164 0 164 -141v-194q0 -39 33 -50l-20 -58q-65 8 -86 59q-51 -59 -129 -59q-68 0 -107.5 36.5t-39.5 96.5zM108 0v79h385v-79h-385zM194 444q0 -74 77 -74 q57 0 97 55v94h-50q-124 0 -124 -75z" />
<glyph unicode="&#xab;" horiz-adv-x="551" d="M55 260v65l175 210l55 -35l-133 -207l133 -207l-55 -35zM265 260v65l176 210l55 -35l-133 -207l133 -207l-55 -35z" />
<glyph unicode="&#xac;" d="M62 274v77h376v-220h-83v143h-293z" />
<glyph unicode="&#xad;" horiz-adv-x="405" d="M61 274v78h283v-78h-283z" />
<glyph unicode="&#xae;" horiz-adv-x="646" d="M67 491q0 107 75 182t181 75t180.5 -75t74.5 -182t-74 -181t-181 -74t-181.5 74.5t-74.5 180.5zM122 491q0 -87 57.5 -146.5t143.5 -59.5t143 59.5t57 146.5t-57.5 147.5t-142.5 60.5q-86 0 -143.5 -60.5t-57.5 -147.5zM223 354v282h85q124 0 124 -85q0 -60 -66 -79 l85 -118h-68l-74 108h-28v-108h-58zM281 507h31q60 0 60 44q0 40 -62 40h-29v-84z" />
<glyph unicode="&#xaf;" horiz-adv-x="333" d="M30 682v69h273v-69h-273z" />
<glyph unicode="&#xb0;" d="M55 543q0 72 49 115t115 43q67 0 115.5 -43.5t48.5 -115.5t-48.5 -114.5t-115.5 -42.5q-66 0 -115 43t-49 115zM132 543q0 -46 25.5 -71t61.5 -25q37 0 62 24.5t25 70.5t-25 71t-62 25t-62 -24.5t-25 -70.5z" />
<glyph unicode="&#xb1;" d="M62 0v76h376v-76h-376zM62 274v76h145v150h86v-150h145v-76h-145v-124h-86v124h-145z" />
<glyph unicode="&#xb2;" horiz-adv-x="400" d="M50 675q61 70 143 70q64 0 102 -34t38 -87q0 -52 -42 -107.5t-136 -135.5h188l-9 -63h-278v55q115 105 155.5 156t40.5 93q0 28 -17.5 44t-45.5 16q-47 0 -86 -47z" />
<glyph unicode="&#xb3;" horiz-adv-x="400" d="M37 375l49 43q38 -44 94 -44q39 0 61.5 19t22.5 51q0 66 -79 66h-37l8 60h25q31 0 51 14.5t20 43.5q0 27 -19 41.5t-49 14.5q-51 0 -94 -40l-41 46q64 55 138 55q66 0 104.5 -31t38.5 -78q0 -30 -20.5 -54.5t-56.5 -33.5v-3q37 -5 64 -34t27 -67q0 -57 -45 -94.5 t-117 -37.5q-89 0 -145 63z" />
<glyph unicode="&#xb4;" horiz-adv-x="297" d="M30 687l190 112l47 -77l-209 -84z" />
<glyph unicode="&#xb5;" horiz-adv-x="588" d="M98 -213v740h92v-296q0 -37 1 -57.5t5 -44t12.5 -35t23.5 -19.5t38 -8q75 0 128 77v383h92v-357q0 -79 26 -170l-86 -12q-17 30 -23 84q-22 -38 -59 -61t-74 -23q-62 0 -92 42l-4 -1q11 -51 11 -85v-146z" />
<glyph unicode="&#xb6;" horiz-adv-x="734" d="M90 486q0 89 66.5 146t187.5 57h265v-891l-83 -11v828h-109v-817l-83 -11v499q-117 1 -180.5 57t-63.5 143z" />
<glyph unicode="&#xb7;" horiz-adv-x="265" d="M63 338q0 29 20 49t49 20q30 0 50 -20t20 -49t-20 -49.5t-50 -20.5q-29 0 -49 20.5t-20 49.5z" />
<glyph unicode="&#xb8;" horiz-adv-x="291" d="M30 -216l28 51q30 -16 67 -16q59 0 59 40q0 25 -21.5 33.5t-65.5 8.5l9 115h61v-72q47 -4 70.5 -28t23.5 -57q0 -47 -36 -73.5t-89 -26.5q-63 0 -106 25z" />
<glyph unicode="&#xb9;" horiz-adv-x="400" d="M66 655l145 84h61v-421h-75v336l-94 -51z" />
<glyph unicode="&#xba;" horiz-adv-x="600" d="M99 529q0 99 54 160t147 61q94 0 147 -60t53 -161q0 -100 -53.5 -161t-146.5 -61q-94 0 -147.5 60.5t-53.5 161.5zM108 0v79h385v-79h-385zM189 529q0 -154 111 -154q110 0 110 154q0 153 -110 153q-111 0 -111 -153z" />
<glyph unicode="&#xbb;" horiz-adv-x="551" d="M55 86l133 207l-133 207l55 35l175 -210v-65l-175 -209zM265 86l133 207l-133 207l55 35l176 -210v-65l-176 -209z" />
<glyph unicode="&#xbc;" horiz-adv-x="920" d="M66 615l145 84h61v-421h-75v336l-94 -51zM227 -49l405 800l61 -30l-404 -800zM560 96v50l134 285l65 -26l-113 -248h93l7 105h69v-105h54v-61h-54v-96h-76v96h-179z" />
<glyph unicode="&#xbd;" horiz-adv-x="920" d="M66 615l145 84h61v-421h-75v336l-94 -51zM227 -49l405 800l61 -30l-404 -800zM575 357q61 70 143 70q64 0 102 -34t38 -87q0 -52 -42 -107.5t-136 -135.5h188l-9 -63h-278v55q115 105 155.5 156t40.5 93q0 28 -17.5 44t-45.5 16q-47 0 -86 -47z" />
<glyph unicode="&#xbe;" horiz-adv-x="920" d="M37 335l49 43q38 -44 94 -44q39 0 61.5 19t22.5 51q0 66 -79 66h-37l8 60h25q31 0 51 14.5t20 43.5q0 27 -19 41.5t-49 14.5q-51 0 -94 -40l-41 46q64 55 138 55q66 0 104.5 -31t38.5 -78q0 -30 -20.5 -54.5t-56.5 -33.5v-3q37 -5 64 -34t27 -67q0 -57 -45 -94.5 t-117 -37.5q-89 0 -145 63zM227 -49l405 800l61 -30l-404 -800zM560 96v50l134 285l65 -26l-113 -248h93l7 105h69v-105h54v-61h-54v-96h-76v96h-179z" />
<glyph unicode="&#xbf;" horiz-adv-x="507" d="M65 -57q0 44 18.5 76t45 52t53.5 38.5t45.5 47.5t18.5 68v33h91v-38q0 -45 -18 -79.5t-44 -55.5t-52 -39.5t-44 -42.5t-18 -54q0 -41 27.5 -63.5t75.5 -22.5q78 0 137 72l64 -49q-86 -99 -209 -99q-90 0 -140.5 46t-50.5 110zM219 430q0 29 20 49.5t49 20.5t49.5 -20.5 t20.5 -49.5t-20.5 -49t-49.5 -20t-49 20t-20 49z" />
<glyph unicode="&#xc0;" horiz-adv-x="579" d="M6 0l224 689h120l223 -689h-100l-53 173h-265l-53 -173h-96zM168 832l48 77l188 -110l-27 -49zM178 250h219l-107 353h-4z" />
<glyph unicode="&#xc1;" horiz-adv-x="579" d="M6 0l224 689h120l223 -689h-100l-53 173h-265l-53 -173h-96zM172 801l189 109l47 -77l-208 -81zM178 250h219l-107 353h-4z" />
<glyph unicode="&#xc2;" horiz-adv-x="579" d="M6 0l224 689h120l223 -689h-100l-53 173h-265l-53 -173h-96zM123 799l136 111h61l135 -111l-39 -45l-127 81l-126 -81zM178 250h219l-107 353h-4z" />
<glyph unicode="&#xc3;" horiz-adv-x="579" d="M6 0l224 689h120l223 -689h-100l-53 173h-265l-53 -173h-96zM124 797q38 89 113 89q34 0 66 -24t44 -24q16 0 27 10t24 33l57 -25q-39 -88 -113 -88q-32 0 -65 24t-45 24q-16 0 -27 -10t-24 -34zM178 250h219l-107 353h-4z" />
<glyph unicode="&#xc4;" horiz-adv-x="579" d="M6 0l224 689h120l223 -689h-100l-53 173h-265l-53 -173h-96zM127 821q0 24 16.5 40t40.5 16q25 0 41.5 -16t16.5 -40q0 -25 -16.5 -41t-41.5 -16q-24 0 -40.5 16t-16.5 41zM178 250h219l-107 353h-4zM336 821q0 24 16.5 40t41.5 16q24 0 41 -16t17 -40t-17 -40.5 t-41 -16.5q-25 0 -41.5 16t-16.5 41z" />
<glyph unicode="&#xc5;" horiz-adv-x="579" d="M6 0l224 689h120l223 -689h-100l-53 173h-265l-53 -173h-96zM175 840q0 44 32 74.5t82 30.5t82 -30.5t32 -74.5q0 -45 -32 -75.5t-82 -30.5t-82 30.5t-32 75.5zM178 250h219l-107 353h-4zM235 840q0 -26 14.5 -41.5t39.5 -15.5q24 0 38.5 15.5t14.5 41.5t-14.5 41 t-38.5 15q-25 0 -39.5 -15t-14.5 -41z" />
<glyph unicode="&#xc6;" horiz-adv-x="794" d="M-12 0l274 689h459l-11 -75h-309l56 -227h255v-75h-235l58 -237h227v-75h-304l-41 173h-267l-65 -173h-97zM178 250h222l-82 355h-5z" />
<glyph unicode="&#xc7;" horiz-adv-x="571" d="M62 345q0 167 82 261.5t204 94.5q63 0 107 -16.5t87 -51.5l-52 -61q-61 51 -136 51q-85 0 -138 -66.5t-53 -211.5q0 -142 52 -209.5t138 -67.5q83 0 150 59l49 -62q-78 -74 -195 -77v-44q47 -4 70.5 -28t23.5 -57q0 -47 -36 -73.5t-89 -26.5q-63 0 -106 25l28 51 q30 -16 66 -16q60 0 60 40q0 25 -21.5 33.5t-65.5 8.5l7 92q-106 19 -169 110.5t-63 241.5z" />
<glyph unicode="&#xc8;" horiz-adv-x="540" d="M105 0v689h373l-11 -76h-267v-225h232v-76h-232v-236h286v-76h-381zM173 832l48 77l188 -110l-27 -49z" />
<glyph unicode="&#xc9;" horiz-adv-x="540" d="M105 0v689h373l-11 -76h-267v-225h232v-76h-232v-236h286v-76h-381zM184 799l189 109l47 -77l-208 -81z" />
<glyph unicode="&#xca;" horiz-adv-x="540" d="M105 0v689h373l-11 -76h-267v-225h232v-76h-232v-236h286v-76h-381zM122 799l136 111h61l135 -111l-39 -45l-127 81l-126 -81z" />
<glyph unicode="&#xcb;" horiz-adv-x="540" d="M105 0v689h373l-11 -76h-267v-225h232v-76h-232v-236h286v-76h-381zM126 821q0 24 16.5 40t40.5 16q25 0 41.5 -16t16.5 -40q0 -25 -16.5 -41t-41.5 -16q-24 0 -40.5 16t-16.5 41zM335 821q0 24 16.5 40t41.5 16q24 0 41 -16t17 -40t-17 -40.5t-41 -16.5q-25 0 -41.5 16 t-16.5 41z" />
<glyph unicode="&#xcc;" horiz-adv-x="306" d="M35 832l48 77l188 -110l-27 -49zM105 0v689h96v-689h-96z" />
<glyph unicode="&#xcd;" horiz-adv-x="306" d="M35 799l189 109l47 -77l-208 -81zM105 0v689h96v-689h-96z" />
<glyph unicode="&#xce;" horiz-adv-x="306" d="M-13 799l136 111h61l135 -111l-39 -45l-127 81l-126 -81zM105 0v689h96v-689h-96z" />
<glyph unicode="&#xcf;" horiz-adv-x="306" d="M-9 821q0 24 16.5 40t40.5 16q25 0 41.5 -16t16.5 -40q0 -25 -16.5 -41t-41.5 -16q-24 0 -40.5 16t-16.5 41zM105 0v689h96v-689h-96zM200 821q0 24 16.5 40t41.5 16q24 0 41 -16t17 -40t-17 -40.5t-41 -16.5q-25 0 -41.5 16t-16.5 41z" />
<glyph unicode="&#xd0;" horiz-adv-x="656" d="M23 318v70h82v301h154q54 0 99 -7.5t90.5 -30t76 -59.5t50 -99t19.5 -145q0 -82 -20 -145t-51 -101t-75 -61.5t-86.5 -32t-91.5 -8.5h-165v318h-82zM200 75h81q42 0 76.5 12t66.5 40.5t50.5 84.5t18.5 136q0 67 -13.5 117t-33.5 77.5t-49.5 44t-56.5 21.5t-60 5h-80v-225 h172v-70h-172v-243z" />
<glyph unicode="&#xd1;" horiz-adv-x="689" d="M105 0v689h126l273 -586h4q-13 104 -13 250v336h89v-689h-129l-270 583h-4q13 -104 13 -247v-336h-89zM176 797q38 89 113 89q34 0 66 -24t44 -24q16 0 27 10t24 33l57 -25q-39 -88 -113 -88q-32 0 -65 24t-45 24q-16 0 -27 -10t-24 -34z" />
<glyph unicode="&#xd2;" horiz-adv-x="696" d="M62 343q0 169 78.5 263.5t207.5 94.5q130 0 208 -93t78 -264q0 -169 -78 -262.5t-208 -93.5t-208 92t-78 263zM163 343q0 -277 185 -277t185 278q0 279 -185 279t-185 -280zM227 832l48 77l188 -110l-27 -49z" />
<glyph unicode="&#xd3;" horiz-adv-x="696" d="M62 343q0 169 78.5 263.5t207.5 94.5q130 0 208 -93t78 -264q0 -169 -78 -262.5t-208 -93.5t-208 92t-78 263zM163 343q0 -277 185 -277t185 278q0 279 -185 279t-185 -280zM232 799l189 109l47 -77l-208 -81z" />
<glyph unicode="&#xd4;" horiz-adv-x="696" d="M62 343q0 169 78.5 263.5t207.5 94.5q130 0 208 -93t78 -264q0 -169 -78 -262.5t-208 -93.5t-208 92t-78 263zM163 343q0 -277 185 -277t185 278q0 279 -185 279t-185 -280zM182 799l136 111h61l135 -111l-39 -45l-127 81l-126 -81z" />
<glyph unicode="&#xd5;" horiz-adv-x="696" d="M62 343q0 169 78.5 263.5t207.5 94.5q130 0 208 -93t78 -264q0 -169 -78 -262.5t-208 -93.5t-208 92t-78 263zM163 343q0 -277 185 -277t185 278q0 279 -185 279t-185 -280zM183 797q38 89 113 89q34 0 66 -24t44 -24q16 0 27 10t24 33l57 -25q-39 -88 -113 -88 q-32 0 -65 24t-45 24q-16 0 -27 -10t-24 -34z" />
<glyph unicode="&#xd6;" horiz-adv-x="696" d="M62 343q0 169 78.5 263.5t207.5 94.5q130 0 208 -93t78 -264q0 -169 -78 -262.5t-208 -93.5t-208 92t-78 263zM163 343q0 -277 185 -277t185 278q0 279 -185 279t-185 -280zM186 821q0 24 16.5 40t40.5 16q25 0 41.5 -16t16.5 -40q0 -25 -16.5 -41t-41.5 -16 q-24 0 -40.5 16t-16.5 41zM395 821q0 24 16.5 40t41.5 16q24 0 41 -16t17 -40t-17 -40.5t-41 -16.5q-25 0 -41.5 16t-16.5 41z" />
<glyph unicode="&#xd7;" d="M76 179l118 118l-118 118l56 57l118 -119l118 119l56 -57l-118 -118l118 -118l-56 -56l-118 118l-118 -118z" />
<glyph unicode="&#xd8;" horiz-adv-x="696" d="M62 343q0 169 78.5 263.5t207.5 94.5q28 0 63 -7l37 125l79 -21l-41 -132q70 -39 109 -121.5t39 -200.5q0 -169 -78 -262.5t-208 -93.5q-35 0 -63 7l-37 -126l-79 21l41 132q-70 39 -109 120.5t-39 200.5zM163 343q0 -188 81 -247l151 522q-27 5 -47 5q-185 0 -185 -280z M301 71q17 -5 47 -5q185 0 185 278q0 190 -81 248z" />
<glyph unicode="&#xd9;" horiz-adv-x="672" d="M95 224v465h95v-461q0 -160 145 -160q146 0 146 160v461h96v-465q0 -107 -64 -171.5t-178 -64.5q-115 0 -177.5 64t-62.5 172zM207 832l48 77l188 -110l-27 -49z" />
<glyph unicode="&#xda;" horiz-adv-x="672" d="M95 224v465h95v-461q0 -160 145 -160q146 0 146 160v461h96v-465q0 -107 -64 -171.5t-178 -64.5q-115 0 -177.5 64t-62.5 172zM227 799l189 109l47 -77l-208 -81z" />
<glyph unicode="&#xdb;" horiz-adv-x="672" d="M95 224v465h95v-461q0 -160 145 -160q146 0 146 160v461h96v-465q0 -107 -64 -171.5t-178 -64.5q-115 0 -177.5 64t-62.5 172zM170 799l136 111h61l135 -111l-39 -45l-127 81l-126 -81z" />
<glyph unicode="&#xdc;" horiz-adv-x="672" d="M95 224v465h95v-461q0 -160 145 -160q146 0 146 160v461h96v-465q0 -107 -64 -171.5t-178 -64.5q-115 0 -177.5 64t-62.5 172zM173 821q0 24 16.5 40t40.5 16q25 0 41.5 -16t16.5 -40q0 -25 -16.5 -41t-41.5 -16q-24 0 -40.5 16t-16.5 41zM382 821q0 24 16.5 40t41.5 16 q24 0 41 -16t17 -40t-17 -40.5t-41 -16.5q-25 0 -41.5 16t-16.5 41z" />
<glyph unicode="&#xdd;" horiz-adv-x="550" d="M5 689h105l166 -337h4l166 337h99l-222 -424v-265h-96v264zM167 799l189 109l47 -77l-208 -81z" />
<glyph unicode="&#xde;" horiz-adv-x="590" d="M105 0v689h95v-116h94q129 0 198 -54t69 -164q0 -116 -71 -172t-194 -56h-96v-127h-95zM200 202h105q75 0 115.5 34t40.5 117q0 146 -157 146h-104v-297z" />
<glyph unicode="&#xdf;" horiz-adv-x="595" d="M98 0v533q0 105 53.5 161t150.5 56q79 0 128 -40.5t49 -104.5q0 -33 -17.5 -59.5t-38 -41.5t-38 -35t-17.5 -40q0 -23 20.5 -43.5t49.5 -38t58 -39t49.5 -58t20.5 -83.5q0 -84 -54 -131.5t-134 -47.5q-75 0 -129 34l36 63q39 -23 84 -23q49 0 76 25.5t27 75.5 q0 35 -20 61.5t-48 45t-56.5 37t-48.5 46.5t-20 64q0 26 11.5 47.5t28 36t33 28t28 31t11.5 37.5q0 32 -21.5 56.5t-68.5 24.5q-56 0 -83.5 -33t-27.5 -106v-539h-92z" />
<glyph unicode="&#xe0;" horiz-adv-x="546" d="M45 151q0 82 64 126t184 44h68v41q0 55 -27.5 78.5t-86.5 23.5q-61 0 -138 -27l-24 68q92 34 176 34q192 0 192 -172v-248q0 -30 9 -44.5t30 -22.5l-22 -64q-75 10 -97 74q-55 -74 -157 -74q-79 0 -125 44.5t-46 118.5zM146 155q0 -98 95 -98q72 0 120 73v130h-63 q-152 0 -152 -105zM147 715l47 77l188 -120l-29 -50z" />
<glyph unicode="&#xe1;" horiz-adv-x="546" d="M45 151q0 82 64 126t184 44h68v41q0 55 -27.5 78.5t-86.5 23.5q-61 0 -138 -27l-24 68q92 34 176 34q192 0 192 -172v-248q0 -30 9 -44.5t30 -22.5l-22 -64q-75 10 -97 74q-55 -74 -157 -74q-79 0 -125 44.5t-46 118.5zM146 155q0 -98 95 -98q72 0 120 73v130h-63 q-152 0 -152 -105zM147 672l188 119l47 -77l-205 -92z" />
<glyph unicode="&#xe2;" horiz-adv-x="546" d="M45 151q0 82 64 126t184 44h68v41q0 55 -27.5 78.5t-86.5 23.5q-61 0 -138 -27l-24 68q92 34 176 34q192 0 192 -172v-248q0 -30 9 -44.5t30 -22.5l-22 -64q-75 10 -97 74q-55 -74 -157 -74q-79 0 -125 44.5t-46 118.5zM98 671l136 121h61l135 -121l-40 -44l-125 91 l-125 -91zM146 155q0 -98 95 -98q72 0 120 73v130h-63q-152 0 -152 -105z" />
<glyph unicode="&#xe3;" horiz-adv-x="546" d="M45 151q0 82 64 126t184 44h68v41q0 55 -27.5 78.5t-86.5 23.5q-61 0 -138 -27l-24 68q92 34 176 34q192 0 192 -172v-248q0 -30 9 -44.5t30 -22.5l-22 -64q-75 10 -97 74q-55 -74 -157 -74q-79 0 -125 44.5t-46 118.5zM100 680q37 88 113 88q34 0 66 -24t44 -24 q26 0 51 44l57 -25q-38 -89 -113 -89q-32 0 -65 24t-45 24q-26 0 -51 -44zM146 155q0 -98 95 -98q72 0 120 73v130h-63q-152 0 -152 -105z" />
<glyph unicode="&#xe4;" horiz-adv-x="546" d="M45 151q0 82 64 126t184 44h68v41q0 55 -27.5 78.5t-86.5 23.5q-61 0 -138 -27l-24 68q92 34 176 34q192 0 192 -172v-248q0 -30 9 -44.5t30 -22.5l-22 -64q-75 10 -97 74q-55 -74 -157 -74q-79 0 -125 44.5t-46 118.5zM106 703q0 25 16.5 41t41.5 16q24 0 40.5 -16 t16.5 -41q0 -24 -16.5 -40t-40.5 -16q-25 0 -41.5 16t-16.5 40zM146 155q0 -98 95 -98q72 0 120 73v130h-63q-152 0 -152 -105zM316 703q0 25 16.5 41t40.5 16q25 0 41.5 -16t16.5 -41q0 -24 -16.5 -40t-41.5 -16q-24 0 -40.5 16t-16.5 40z" />
<glyph unicode="&#xe5;" horiz-adv-x="546" d="M45 151q0 82 64 126t184 44h68v41q0 55 -27.5 78.5t-86.5 23.5q-61 0 -138 -27l-24 68q92 34 176 34q192 0 192 -172v-248q0 -30 9 -44.5t30 -22.5l-22 -64q-75 10 -97 74q-55 -74 -157 -74q-79 0 -125 44.5t-46 118.5zM146 155q0 -98 95 -98q72 0 120 73v130h-63 q-152 0 -152 -105zM151 722q0 45 32 75.5t82 30.5t82 -30.5t32 -75.5q0 -44 -32 -74.5t-82 -30.5t-82 30.5t-32 74.5zM212 722q0 -26 14.5 -41t38.5 -15q25 0 39 15t14 41t-14 41t-39 15q-24 0 -38.5 -15t-14.5 -41z" />
<glyph unicode="&#xe6;" horiz-adv-x="840" d="M45 151q0 82 64 126t184 44h69v41q0 54 -28 78t-87 24q-61 0 -138 -27l-24 68q92 34 176 34q123 0 158 -86q54 86 155 86q102 0 157.5 -69t55.5 -191q0 -23 -2 -47h-336q12 -169 142 -169q72 0 132 49l42 -61q-79 -63 -176 -63q-120 0 -181 90q-65 -90 -186 -90 q-84 0 -130.5 44t-46.5 119zM145 156q0 -99 96 -99q83 0 135 93q-14 45 -14 110h-64q-153 0 -153 -104zM449 300h247q-3 166 -122 166q-115 0 -125 -166z" />
<glyph unicode="&#xe7;" horiz-adv-x="476" d="M57 261q0 124 61.5 201t174.5 77q91 0 159 -57l-45 -60q-55 41 -114 41q-65 0 -101 -50.5t-36 -151.5q0 -195 137 -195q57 0 115 43l44 -63q-63 -52 -145 -57v-45q47 -4 70.5 -28t23.5 -57q0 -47 -36 -73.5t-89 -26.5q-63 0 -106 25l28 51q30 -16 67 -16q59 0 59 40 q0 25 -21.5 33.5t-65.5 8.5l7 91q-92 15 -139.5 85.5t-47.5 183.5z" />
<glyph unicode="&#xe8;" horiz-adv-x="546" d="M57 263q0 122 60 199t163 77q102 0 157.5 -69t55.5 -191q0 -23 -2 -47h-336q12 -169 142 -169q72 0 132 49l42 -61q-79 -63 -176 -63q-115 0 -176.5 74.5t-61.5 200.5zM155 300h247q-3 166 -122 166q-115 0 -125 -166zM163 715l47 77l188 -120l-29 -50z" />
<glyph unicode="&#xe9;" horiz-adv-x="546" d="M57 263q0 122 60 199t163 77q102 0 157.5 -69t55.5 -191q0 -23 -2 -47h-336q12 -169 142 -169q72 0 132 49l42 -61q-79 -63 -176 -63q-115 0 -176.5 74.5t-61.5 200.5zM155 300h247q-3 166 -122 166q-115 0 -125 -166zM163 672l188 119l47 -77l-205 -92z" />
<glyph unicode="&#xea;" horiz-adv-x="546" d="M57 263q0 122 60 199t163 77q102 0 157.5 -69t55.5 -191q0 -23 -2 -47h-336q12 -169 142 -169q72 0 132 49l42 -61q-79 -63 -176 -63q-115 0 -176.5 74.5t-61.5 200.5zM115 671l136 121h61l135 -121l-40 -44l-125 91l-125 -91zM155 300h247q-3 166 -122 166 q-115 0 -125 -166z" />
<glyph unicode="&#xeb;" horiz-adv-x="546" d="M57 263q0 122 60 199t163 77q102 0 157.5 -69t55.5 -191q0 -23 -2 -47h-336q12 -169 142 -169q72 0 132 49l42 -61q-79 -63 -176 -63q-115 0 -176.5 74.5t-61.5 200.5zM118 703q0 25 16.5 41t41.5 16q24 0 40.5 -16t16.5 -41q0 -24 -16.5 -40t-40.5 -16q-25 0 -41.5 16 t-16.5 40zM155 300h247q-3 166 -122 166q-115 0 -125 -166zM328 703q0 25 16.5 41t40.5 16q25 0 41.5 -16t16.5 -41q0 -24 -16.5 -40t-41.5 -16q-24 0 -40.5 16t-16.5 40z" />
<glyph unicode="&#xec;" horiz-adv-x="279" d="M19 715l47 77l188 -120l-29 -50zM93 0v527h92v-527h-92z" />
<glyph unicode="&#xed;" horiz-adv-x="279" d="M23 672l188 119l47 -77l-205 -92zM93 0v527h92v-527h-92z" />
<glyph unicode="&#xee;" horiz-adv-x="279" d="M-27 671l136 121h61l135 -121l-40 -44l-125 91l-125 -91zM93 0v527h92v-527h-92z" />
<glyph unicode="&#xef;" horiz-adv-x="279" d="M-23 703q0 25 16.5 41t41.5 16q24 0 40.5 -16t16.5 -41q0 -24 -16.5 -40t-40.5 -16q-25 0 -41.5 16t-16.5 40zM93 0v527h92v-527h-92zM187 703q0 25 16.5 41t40.5 16q25 0 41.5 -16t16.5 -41q0 -24 -16.5 -40t-41.5 -16q-24 0 -40.5 16t-16.5 40z" />
<glyph unicode="&#xf0;" horiz-adv-x="566" d="M57 235q0 108 59 177t142 69q90 0 141 -61l3 1q-25 119 -114 188l-76 -78l-64 32l78 82q-44 21 -109 35l20 70q89 -20 144 -48l70 74l54 -47l-61 -63q86 -60 125 -158t39 -243q0 -125 -63.5 -201t-166.5 -76q-96 0 -158.5 66t-62.5 181zM151 239q0 -86 34 -132t92 -46 q63 0 100.5 53t37.5 152q0 34 -3 66q-51 77 -140 77q-52 0 -86.5 -43t-34.5 -127z" />
<glyph unicode="&#xf1;" horiz-adv-x="589" d="M98 0v527h79l7 -72q67 84 168 84q143 0 143 -156v-383h-92v377q0 48 -18.5 69t-63.5 21q-73 0 -131 -85v-382h-92zM136 680q37 88 113 88q34 0 66 -24t44 -24q26 0 51 44l57 -25q-38 -89 -113 -89q-32 0 -65 24t-45 24q-26 0 -51 -44z" />
<glyph unicode="&#xf2;" horiz-adv-x="584" d="M57 263q0 125 62.5 200.5t173.5 75.5t172.5 -74t61.5 -201q0 -124 -62.5 -200t-172.5 -76q-111 0 -173 74t-62 201zM156 263q0 -201 136 -201t136 202q0 201 -135 201q-137 0 -137 -202zM172 715l47 77l188 -120l-29 -50z" />
<glyph unicode="&#xf3;" horiz-adv-x="584" d="M57 263q0 125 62.5 200.5t173.5 75.5t172.5 -74t61.5 -201q0 -124 -62.5 -200t-172.5 -76q-111 0 -173 74t-62 201zM156 263q0 -201 136 -201t136 202q0 201 -135 201q-137 0 -137 -202zM176 672l188 119l47 -77l-205 -92z" />
<glyph unicode="&#xf4;" horiz-adv-x="584" d="M57 263q0 125 62.5 200.5t173.5 75.5t172.5 -74t61.5 -201q0 -124 -62.5 -200t-172.5 -76q-111 0 -173 74t-62 201zM125 671l136 121h61l135 -121l-40 -44l-125 91l-125 -91zM156 263q0 -201 136 -201t136 202q0 201 -135 201q-137 0 -137 -202z" />
<glyph unicode="&#xf5;" horiz-adv-x="584" d="M57 263q0 125 62.5 200.5t173.5 75.5t172.5 -74t61.5 -201q0 -124 -62.5 -200t-172.5 -76q-111 0 -173 74t-62 201zM127 680q37 88 113 88q34 0 66 -24t44 -24q26 0 51 44l57 -25q-38 -89 -113 -89q-32 0 -65 24t-45 24q-26 0 -51 -44zM156 263q0 -201 136 -201t136 202 q0 201 -135 201q-137 0 -137 -202z" />
<glyph unicode="&#xf6;" horiz-adv-x="584" d="M57 263q0 125 62.5 200.5t173.5 75.5t172.5 -74t61.5 -201q0 -124 -62.5 -200t-172.5 -76q-111 0 -173 74t-62 201zM130 703q0 25 16.5 41t41.5 16q24 0 40.5 -16t16.5 -41q0 -24 -16.5 -40t-40.5 -16q-25 0 -41.5 16t-16.5 40zM156 263q0 -201 136 -201t136 202 q0 201 -135 201q-137 0 -137 -202zM340 703q0 25 16.5 41t40.5 16q25 0 41.5 -16t16.5 -41q0 -24 -16.5 -40t-41.5 -16q-24 0 -40.5 16t-16.5 40z" />
<glyph unicode="&#xf7;" d="M62 274v77h376v-77h-376zM180 115q0 29 20.5 49t49.5 20t49.5 -20t20.5 -49t-20.5 -49.5t-49.5 -20.5t-49.5 20.5t-20.5 49.5zM180 511q0 29 20.5 49t49.5 20t49.5 -20t20.5 -49t-20.5 -49t-49.5 -20t-49.5 20t-20.5 49z" />
<glyph unicode="&#xf8;" horiz-adv-x="584" d="M57 263q0 125 62.5 200.5t173.5 75.5q22 0 47 -5l38 121l75 -22l-41 -125q55 -32 85 -95.5t30 -148.5q0 -124 -62.5 -200t-172.5 -76q-28 0 -47 5l-38 -124l-75 22l41 126q-56 32 -86 95.5t-30 150.5zM156 263q0 -130 53 -174l116 373q-20 2 -32 2q-137 0 -137 -201z M261 65q15 -3 31 -3q136 0 136 202q0 128 -52 172z" />
<glyph unicode="&#xf9;" horiz-adv-x="582" d="M93 144v383h92v-372q0 -51 17.5 -73t60.5 -22q77 0 129 81v386h92v-527h-79l-7 70q-63 -82 -160 -82q-145 0 -145 156zM164 715l47 77l188 -120l-29 -50z" />
<glyph unicode="&#xfa;" horiz-adv-x="582" d="M93 144v383h92v-372q0 -51 17.5 -73t60.5 -22q77 0 129 81v386h92v-527h-79l-7 70q-63 -82 -160 -82q-145 0 -145 156zM189 672l188 119l47 -77l-205 -92z" />
<glyph unicode="&#xfb;" horiz-adv-x="582" d="M93 144v383h92v-372q0 -51 17.5 -73t60.5 -22q77 0 129 81v386h92v-527h-79l-7 70q-63 -82 -160 -82q-145 0 -145 156zM123 671l136 121h61l135 -121l-40 -44l-125 91l-125 -91z" />
<glyph unicode="&#xfc;" horiz-adv-x="582" d="M93 144v383h92v-372q0 -51 17.5 -73t60.5 -22q77 0 129 81v386h92v-527h-79l-7 70q-63 -82 -160 -82q-145 0 -145 156zM127 703q0 25 16.5 41t41.5 16q24 0 40.5 -16t16.5 -41q0 -24 -16.5 -40t-40.5 -16q-25 0 -41.5 16t-16.5 40zM337 703q0 25 16.5 41t40.5 16 q25 0 41.5 -16t16.5 -41q0 -24 -16.5 -40t-41.5 -16q-24 0 -40.5 16t-16.5 40z" />
<glyph unicode="&#xfd;" horiz-adv-x="491" d="M11 527h98l136 -453h4l136 453h95l-176 -530q-31 -92 -86.5 -146t-155.5 -64l-13 72q77 13 112 45t55 96h-31zM146 672l188 119l47 -77l-205 -92z" />
<glyph unicode="&#xfe;" horiz-adv-x="592" d="M98 -213v952l92 11v-290q60 79 149 79q196 0 196 -275q0 -124 -54.5 -200t-153.5 -76q-87 0 -137 60v-250zM190 127q42 -64 115 -64q131 0 131 201q0 202 -119 202q-72 0 -127 -82v-257z" />
<glyph unicode="&#xff;" horiz-adv-x="491" d="M11 527h98l136 -453h4l136 453h95l-176 -530q-31 -92 -86.5 -146t-155.5 -64l-13 72q77 13 112 45t55 96h-31zM85 703q0 25 16.5 41t41.5 16q24 0 40.5 -16t16.5 -41q0 -24 -16.5 -40t-40.5 -16q-25 0 -41.5 16t-16.5 40zM295 703q0 25 16.5 41t40.5 16q25 0 41.5 -16 t16.5 -41q0 -24 -16.5 -40t-41.5 -16q-24 0 -40.5 16t-16.5 40z" />
<glyph unicode="&#x152;" horiz-adv-x="921" d="M68 343q0 167 79.5 262.5t202.5 95.5q45 0 84 -12h425l-11 -75h-303q63 -75 71 -227h197v-75h-197q-5 -158 -73 -237h324v-75h-436q-37 -12 -81 -12q-124 0 -203 92.5t-79 262.5zM169 343q0 -143 49.5 -210t131.5 -67q90 0 131 64.5t41 213.5q0 147 -43.5 212.5 t-128.5 65.5q-83 0 -132 -67.5t-49 -211.5z" />
<glyph unicode="&#x153;" horiz-adv-x="906" d="M57 263q0 124 62 200t171 76q127 0 182 -109q51 109 168 109q102 0 157.5 -69t55.5 -191q0 -23 -2 -47h-336q12 -169 142 -169q72 0 132 49l42 -61q-79 -63 -176 -63q-131 0 -184 107q-57 -107 -181 -107q-110 0 -171.5 74t-61.5 201zM156 263q0 -200 134 -200 q136 0 136 201q0 200 -136 200q-134 0 -134 -201zM515 300h247q-3 166 -122 166q-115 0 -125 -166z" />
<glyph unicode="&#x178;" horiz-adv-x="550" d="M5 689h105l166 -337h4l166 337h99l-222 -424v-265h-96v264zM113 821q0 24 16.5 40t40.5 16q25 0 41.5 -16t16.5 -40q0 -25 -16.5 -41t-41.5 -16q-24 0 -40.5 16t-16.5 41zM322 821q0 24 16.5 40t41.5 16q24 0 41 -16t17 -40t-17 -40.5t-41 -16.5q-25 0 -41.5 16t-16.5 41 z" />
<glyph unicode="&#x2c6;" horiz-adv-x="392" d="M30 687l136 113h61l135 -113l-39 -45l-126 84l-127 -84z" />
<glyph unicode="&#x2dc;" horiz-adv-x="390" d="M30 688q37 88 113 88q33 0 65 -24t45 -24q26 0 51 44l56 -26q-37 -88 -113 -88q-32 0 -64.5 24t-44.5 24q-16 0 -27 -10t-24 -34z" />
<glyph unicode="&#x2000;" horiz-adv-x="472" />
<glyph unicode="&#x2001;" horiz-adv-x="945" />
<glyph unicode="&#x2002;" horiz-adv-x="472" />
<glyph unicode="&#x2003;" horiz-adv-x="945" />
<glyph unicode="&#x2004;" horiz-adv-x="315" />
<glyph unicode="&#x2005;" horiz-adv-x="236" />
<glyph unicode="&#x2006;" horiz-adv-x="157" />
<glyph unicode="&#x2007;" horiz-adv-x="157" />
<glyph unicode="&#x2008;" horiz-adv-x="118" />
<glyph unicode="&#x2009;" horiz-adv-x="189" />
<glyph unicode="&#x200a;" horiz-adv-x="52" />
<glyph unicode="&#x2010;" horiz-adv-x="405" d="M61 274v78h283v-78h-283z" />
<glyph unicode="&#x2011;" horiz-adv-x="405" d="M61 274v78h283v-78h-283z" />
<glyph unicode="&#x2012;" horiz-adv-x="405" d="M61 274v78h283v-78h-283z" />
<glyph unicode="&#x2013;" horiz-adv-x="520" d="M32 274v78h456v-78h-456z" />
<glyph unicode="&#x2014;" horiz-adv-x="791" d="M32 274v78h726v-78h-726z" />
<glyph unicode="&#x2018;" horiz-adv-x="255" d="M55 563q0 24 16 58l67 142h57l-34 -153q23 -16 23 -47q0 -26 -19 -44.5t-46 -18.5t-45.5 18.5t-18.5 44.5z" />
<glyph unicode="&#x2019;" horiz-adv-x="255" d="M57 500l34 153q-23 16 -23 47q0 26 19.5 44.5t45.5 18.5q27 0 46 -18.5t19 -44.5q0 -21 -17 -58l-67 -142h-57z" />
<glyph unicode="&#x201a;" horiz-adv-x="255" d="M57 -156l34 153q-23 16 -23 47q0 26 19.5 44.5t45.5 18.5q27 0 46 -18.5t19 -44.5q0 -21 -17 -58l-67 -142h-57z" />
<glyph unicode="&#x201c;" horiz-adv-x="437" d="M55 563q0 24 16 58l67 142h57l-34 -153q23 -16 23 -47q0 -26 -19 -44.5t-46 -18.5t-45.5 18.5t-18.5 44.5zM237 563q0 24 16 58l67 142h57l-34 -153q23 -16 23 -47q0 -26 -19.5 -44.5t-45.5 -18.5q-27 0 -45.5 18.5t-18.5 44.5z" />
<glyph unicode="&#x201d;" horiz-adv-x="437" d="M57 500l34 153q-23 16 -23 47q0 26 19.5 44.5t45.5 18.5q27 0 46 -18.5t19 -44.5q0 -21 -17 -58l-67 -142h-57zM239 500l34 153q-23 16 -23 47q0 26 19.5 44.5t45.5 18.5q27 0 46 -18.5t19 -44.5q0 -21 -17 -58l-67 -142h-57z" />
<glyph unicode="&#x201e;" horiz-adv-x="435" d="M57 -156l34 153q-23 16 -23 47q0 26 19.5 44.5t45.5 18.5q27 0 46 -18.5t19 -44.5q0 -21 -17 -58l-67 -142h-57zM238 -156l34 153q-23 16 -23 47q0 26 19.5 44.5t45.5 18.5q27 0 45.5 -18.5t18.5 -44.5q0 -25 -16 -58l-67 -142h-57z" />
<glyph unicode="&#x2022;" horiz-adv-x="400" d="M76 342q0 53 35.5 88t88.5 35t88.5 -35.5t35.5 -88.5t-35.5 -88t-88.5 -35t-88.5 35.5t-35.5 88.5z" />
<glyph unicode="&#x2026;" horiz-adv-x="794" d="M63 58q0 29 20 49t49 20q30 0 50 -20t20 -49t-20 -49.5t-50 -20.5q-29 0 -49 20.5t-20 49.5zM327 58q0 29 20.5 49t49.5 20t49 -20t20 -49t-20 -49.5t-49 -20.5t-49.5 20.5t-20.5 49.5zM592 58q0 29 20 49t49 20q30 0 50 -20t20 -49t-20 -49.5t-50 -20.5q-29 0 -49 20.5 t-20 49.5z" />
<glyph unicode="&#x202f;" horiz-adv-x="189" />
<glyph unicode="&#x2039;" horiz-adv-x="340" d="M55 260v65l175 210l55 -35l-133 -207l133 -207l-55 -35z" />
<glyph unicode="&#x203a;" horiz-adv-x="344" d="M55 86l133 207l-133 207l55 35l175 -210v-65l-175 -209z" />
<glyph unicode="&#x205f;" horiz-adv-x="236" />
<glyph unicode="&#x20ac;" horiz-adv-x="562" d="M27 231l15 61h70v90h-85l15 62h79q21 114 86 174.5t160 60.5q94 0 163 -46l-44 -64q-53 34 -113 34q-63 0 -102.5 -37.5t-54.5 -121.5h240l-15 -62h-231v-90h212l-14 -61h-193q12 -87 50 -126.5t106 -39.5q80 0 140 50v-91q-63 -36 -144 -36q-103 0 -166.5 62t-82.5 181 h-91z" />
<glyph unicode="&#x2122;" horiz-adv-x="900" d="M35 625v64h337l-12 -64h-121v-327h-77v327h-127zM398 298l16 391h105l89 -265h4l81 265h108l15 -391h-75l-9 211q-1 17 -1 53q0 19 2 51h-4l-86 -274h-67l-95 274h-4q2 -32 2 -51q0 -36 -1 -53l-8 -211h-72z" />
<glyph unicode="&#xe000;" horiz-adv-x="525" d="M0 0v525h525v-525h-525z" />
<glyph unicode="&#xfb01;" horiz-adv-x="585" d="M21 456v71h84v69q0 70 45 112t137 42q77 0 146 -36l-32 -64q-52 25 -110 25q-54 0 -74 -19t-20 -59v-70h294v-527h-91v456h-203v-456h-92v456h-84z" />
<glyph unicode="&#xfb02;" horiz-adv-x="596" d="M21 456v71h84v69q0 70 45.5 112t138.5 42q54 0 113 -19l88 17v-642q0 -42 34 -42q15 0 34 7l23 -65q-36 -18 -75 -18q-47 0 -77 29t-30 87v554q-48 17 -106 17q-54 0 -75 -19t-21 -59v-70h121l-11 -71h-110v-456h-92v456h-84z" />
</font>
</defs>
</svg>
