<?xml version="1.0" encoding="UTF-8" standalone="no"?>
<svg width="100px" height="100px" viewBox="0 0 100 100" version="1.1" xmlns="http://www.w3.org/2000/svg" xmlns:xlink="http://www.w3.org/1999/xlink" xmlns:sketch="http://www.bohemiancoding.com/sketch/ns">
    <title>Untitled 33</title>
    <description>Created with Sketch (http://www.bohemiancoding.com/sketch)</description>
    <defs></defs>
    <g id="Page-1" stroke="none" stroke-width="1" fill="none" fill-rule="evenodd" sketch:type="MSPage">
        <g id="Group" sketch:type="MSLayerGroup">
            <path d="M50,100 C77.6142389,100 100,77.6142389 100,50 C100,22.3857611 77.6142389,0 50,0 C22.3857611,0 0,22.3857611 0,50 C0,77.6142389 22.3857611,100 50,100 Z" id="Oval-4" fill="#A6C776" sketch:type="MSShapeGroup"></path>
            <rect id="Rectangle-16" stroke="#5D7539" stroke-width="2" sketch:type="MSShapeGroup" x="34" y="23" width="32" height="54" rx="3"></rect>
            <path d="M35.5,66.5 L64.6547604,66.5" id="Line" stroke="#5D7539" stroke-linecap="square" sketch:type="MSShapeGroup"></path>
            <path d="M35.5,66.5 L64.6547604,66.5" id="Line" stroke="#5D7539" stroke-linecap="square" sketch:type="MSShapeGroup"></path>
            <path d="M35.5,32.5 L64.6547604,32.5" id="Line-copy" stroke="#5D7539" stroke-linecap="square" sketch:type="MSShapeGroup"></path>
            <path d="M47.5,28.5 L53.5,28.5" id="Line" stroke="#5D7539" stroke-linecap="square" sketch:type="MSShapeGroup"></path>
            <path d="M50,73 C51.1045696,73 52,72.1045696 52,71 C52,69.8954304 51.1045696,69 50,69 C48.8954304,69 48,69.8954304 48,71 C48,72.1045696 48.8954304,73 50,73 Z" id="Oval-13" stroke="#5D7539" sketch:type="MSShapeGroup"></path>
        </g>
    </g>
</svg>