<?xml version="1.0" encoding="UTF-8" standalone="no"?>
<svg width="100px" height="100px" viewBox="0 0 100 100" version="1.1" xmlns="http://www.w3.org/2000/svg" xmlns:xlink="http://www.w3.org/1999/xlink" xmlns:sketch="http://www.bohemiancoding.com/sketch/ns">
    <title>Untitled 33</title>
    <description>Created with Sketch (http://www.bohemiancoding.com/sketch)</description>
    <defs></defs>
    <g id="Page-1" stroke="none" stroke-width="1" fill="none" fill-rule="evenodd" sketch:type="MSPage">
        <g id="Group" sketch:type="MSLayerGroup">
            <path d="M50,100 C77.6142389,100 100,77.6142389 100,50 C100,22.3857611 77.6142389,0 50,0 C22.3857611,0 0,22.3857611 0,50 C0,77.6142389 22.3857611,100 50,100 Z" id="Oval-4" fill="#A6C776" sketch:type="MSShapeGroup"></path>
            <!-- <rect id="Rectangle-16" stroke="#5D7539" stroke-width="2" sketch:type="MSShapeGroup" x="34" y="23" width="32" height="54" rx="3"></rect>
            <path d="M35.5,66.5 L64.6547604,66.5" id="Line" stroke="#5D7539" stroke-linecap="square" sketch:type="MSShapeGroup"></path>
            <path d="M35.5,66.5 L64.6547604,66.5" id="Line" stroke="#5D7539" stroke-linecap="square" sketch:type="MSShapeGroup"></path>
            <path d="M35.5,32.5 L64.6547604,32.5" id="Line-copy" stroke="#5D7539" stroke-linecap="square" sketch:type="MSShapeGroup"></path>
            <path d="M47.5,28.5 L53.5,28.5" id="Line" stroke="#5D7539" stroke-linecap="square" sketch:type="MSShapeGroup"></path>
            <path d="M50,73 C51.1045696,73 52,72.1045696 52,71 C52,69.8954304 51.1045696,69 50,69 C48.8954304,69 48,69.8954304 48,71 C48,72.1045696 48.8954304,73 50,73 Z" id="Oval-13" stroke="#5D7539" sketch:type="MSShapeGroup"></path> -->

        </g>
        <g transform="scale(2,2) translate(10,10)">
            <path d="M28.936,2.099H2.046c-0.506,0-0.919,0.414-0.919,0.92v21.097c0,0.506,0.413,0.919,0.919,0.919h17.062v-0.003h9.828c0.506,0,0.92-0.413,0.92-0.921V3.019C29.854,2.513,29.439,2.099,28.936,2.099zM28.562,20.062c0,0.412-0.338,0.75-0.75,0.75H3.062c-0.413,0-0.75-0.338-0.75-0.75v-16c0-0.413,0.337-0.75,0.75-0.75h24.75c0.412,0,0.75,0.337,0.75,0.75V20.062zM20.518,28.4c-0.033-0.035-0.062-0.055-0.068-0.062l-0.01-0.004l-0.008-0.004c0,0-0.046-0.021-0.119-0.062c-0.108-0.056-0.283-0.144-0.445-0.237c-0.162-0.097-0.32-0.199-0.393-0.271c-0.008-0.014-0.035-0.079-0.058-0.17c-0.083-0.32-0.161-0.95-0.22-1.539h-7.5c-0.023,0.23-0.048,0.467-0.076,0.691c-0.035,0.272-0.073,0.524-0.113,0.716c-0.02,0.096-0.039,0.175-0.059,0.23c-0.009,0.025-0.018,0.05-0.024,0.062c-0.003,0.006-0.005,0.01-0.007,0.013c-0.094,0.096-0.34,0.246-0.553,0.36c-0.107,0.062-0.209,0.11-0.283,0.146c-0.074,0.037-0.119,0.062-0.119,0.062l-0.007,0.004l-0.008,0.004c-0.01,0.009-0.038,0.022-0.07,0.062c-0.031,0.037-0.067,0.103-0.067,0.185c0.002,0.002-0.004,0.037-0.006,0.088c0,0.043,0.007,0.118,0.068,0.185c0.061,0.062,0.143,0.08,0.217,0.08h9.716c0.073,0,0.153-0.021,0.215-0.08c0.062-0.063,0.068-0.142,0.068-0.185c-0.001-0.051-0.008-0.086-0.007-0.088C20.583,28.503,20.548,28.439,20.518,28.4z" id="Oval-13" stroke="#5D7539" fill="#5D7539" sketch:type="MSShapeGroup" stroke-width="0"></path>
        </g>
    </g>
</svg>